<svg xmlns="http://www.w3.org/2000/svg" viewBox="0 0 64 64">
  <defs>
    <linearGradient id="bg" x1="0" y1="0" x2="1" y2="1">
      <stop offset="0" stop-color="#1e293b"/>
      <stop offset="1" stop-color="#0f172a"/>
    </linearGradient>
    <linearGradient id="car" x1="0" y1="0" x2="1" y2="1">
      <stop offset="0" stop-color="#3b82f6"/>
      <stop offset="1" stop-color="#1d4ed8"/>
    </linearGradient>
    <linearGradient id="accent" x1="0" y1="0" x2="1" y2="1">
      <stop offset="0" stop-color="#60a5fa"/>
      <stop offset="1" stop-color="#3b82f6"/>
    </linearGradient>
  </defs>
  
  <!-- 背景 -->
  <rect width="64" height="64" rx="16" fill="url(#bg)"/>
  
  <!-- 车身主体 -->
  <g fill="none" stroke="url(#car)" stroke-width="2.5" stroke-linecap="round" stroke-linejoin="round">
    <path d="M12 36h40l-3-8a6 6 0 0 0-5.6-4H20.6A6 6 0 0 0 15 28z" fill="url(#car)" fill-opacity="0.1"/>
    <!-- 车轮 -->
    <circle cx="21" cy="42" r="4" fill="url(#car)"/>
    <circle cx="43" cy="42" r="4" fill="url(#car)"/>
    <!-- 车轮内圈 -->
    <circle cx="21" cy="42" r="2" fill="#ffffff" fill-opacity="0.3"/>
    <circle cx="43" cy="42" r="2" fill="#ffffff" fill-opacity="0.3"/>
  </g>
  
  <!-- 顶部装饰线 -->
  <path d="M18 20h28" stroke="url(#accent)" stroke-width="2.5" stroke-linecap="round"/>
  
  <!-- QR码装饰 -->
  <g fill="url(#accent)" opacity="0.6">
    <rect x="48" y="16" width="2" height="2" rx="0.5"/>
    <rect x="52" y="16" width="2" height="2" rx="0.5"/>
    <rect x="48" y="20" width="2" height="2" rx="0.5"/>
    <rect x="52" y="20" width="2" height="2" rx="0.5"/>
  </g>
</svg>
